<svg width="72" height="72" viewBox="0 0 72 72" fill="none" xmlns="http://www.w3.org/2000/svg">
	<path d="M44.4375 36.5625C43.6613 36.5625 43.0312 37.1926 43.0312 37.9688C43.0312 38.7449 43.6613 39.375 44.4375 39.375C45.2137 39.375 45.8438 38.7449 45.8438 37.9688C45.8438 37.1926 45.2137 36.5625 44.4375 36.5625Z" fill="#161616" />
	<path fill-rule="evenodd" clip-rule="evenodd" d="M14.3674 52.001L0.30487 69.7198C-0.0307624 70.1422 -0.0944831 70.7195 0.140075 71.2051C0.374633 71.6913 0.866821 72 1.40625 72H70.5938C71.1332 72 71.6254 71.6913 71.8599 71.2051C72.095 70.7195 72.0308 70.1422 71.6951 69.7198L57.6326 52.001C57.3662 51.6649 56.9603 51.4688 56.5312 51.4688H44.2128L54.7295 34.9739C57.1965 31.2753 58.5 26.9621 58.5 22.5C58.5 10.0937 48.4069 0 36 0C23.5931 0 13.5 10.0937 13.5 22.5C13.5 26.9621 14.8035 31.2748 17.2705 34.9739L27.7872 51.4688H15.4687C15.0397 51.4688 14.6343 51.6649 14.3674 52.001ZM9.117 63.1406H17.6199L12.821 69.1875H4.31763L9.117 63.1406ZM33.4358 60.3281L29.5807 54.2812H28.242L23.4426 60.3281H33.4358ZM42.4199 54.2812H43.7585L48.5574 60.3281H38.5648L42.4199 54.2812ZM55.5886 69.1875L50.7898 63.1406H21.2108L16.4114 69.1875H55.5886ZM59.1795 69.1875L54.3801 63.1406H62.8835L67.6824 69.1875H59.1795ZM52.1483 60.3281H60.6511L55.8523 54.2812H47.3489L52.1483 60.3281ZM19.6183 33.4248C17.4556 30.1871 16.3125 26.4095 16.3125 22.5C16.3125 11.6444 25.1444 2.8125 36 2.8125C46.8556 2.8125 55.6875 11.6444 55.6875 22.5C55.6875 26.4095 54.5444 30.1871 52.3823 33.4248C52.3762 33.433 52.3713 33.4413 52.3658 33.4495C51.4424 34.8981 36.7114 58.0034 36 59.1185C34.2109 56.3121 21.4563 36.3071 19.6342 33.4495C19.6314 33.4449 19.6285 33.4403 19.6255 33.4357C19.6231 33.432 19.6207 33.4284 19.6183 33.4248ZM19.8523 60.3281L24.6511 54.2812H16.1483L11.3489 60.3281H19.8523Z" fill="#161616" />
	<path fill-rule="evenodd" clip-rule="evenodd" d="M50.0625 22.5C50.0625 30.3107 43.7201 36.5625 36 36.5625C28.2821 36.5625 21.9375 30.3129 21.9375 22.5C21.9375 14.7458 28.2458 8.4375 36 8.4375C43.7542 8.4375 50.0625 14.7458 50.0625 22.5ZM47.25 22.5C47.25 16.2966 42.2034 11.25 36 11.25C29.7966 11.25 24.75 16.2966 24.75 22.5C24.75 28.7611 29.8356 33.75 36 33.75C42.1628 33.75 47.25 28.7611 47.25 22.5Z" fill="#161616" />
	<path d="M41.9233 41.3613C41.2586 40.9603 40.394 41.1745 39.993 41.8398L34.7953 50.4629C34.3943 51.1281 34.6086 51.9922 35.2738 52.3932C35.9418 52.7959 36.8047 52.5772 37.2041 51.9148L42.4017 43.2916C42.8027 42.6264 42.5885 41.7623 41.9233 41.3613Z" fill="#161616" />
</svg>
