<svg width="24" height="24" viewBox="0 0 24 24" fill="none" xmlns="http://www.w3.org/2000/svg">
	<path fill-rule="evenodd" clip-rule="evenodd" d="M20.8507 4.52L21.901 8.89C22.1511 9.91 21.921 10.96 21.2808 11.78C21.2272 11.8471 21.16 11.9096 21.0944 11.9707L21.0944 11.9707C21.0622 12.0007 21.0304 12.0304 21.0007 12.06V19C21.0007 20.1 20.1005 21 19.0001 21H4.9956C3.89525 21 2.99496 20.1 2.99496 19V12.06C2.95894 12.02 2.91973 11.9832 2.88052 11.9464C2.8217 11.8912 2.76288 11.836 2.71487 11.77C2.07466 10.95 1.85459 9.91 2.09467 8.89L3.145 4.52C3.35507 3.63 4.14533 3 5.04562 3H18.9401C19.8504 3 20.6306 3.62 20.8507 4.52ZM19.9604 9.36L18.9101 4.99L16.9795 5L17.5596 9.86C17.6297 10.51 18.1598 11 18.77 11C19.2702 11 19.5703 10.71 19.7103 10.53C19.9704 10.2 20.0604 9.78 19.9604 9.36ZM12.9982 5H14.9588L15.499 9.52C15.549 9.91 15.429 10.3 15.1689 10.59C14.9488 10.85 14.6287 11 14.2186 11C13.5484 11 12.9982 10.41 12.9982 9.69V5ZM9.0369 5L8.48672 9.52C8.44671 9.91 8.56675 10.3 8.81683 10.59C9.05691 10.85 9.36701 11 9.70712 11C10.4474 11 10.9975 10.41 10.9975 9.69V5H9.0369ZM4.03529 9.36L5.04562 5H7.01625L6.43606 9.86C6.35604 10.51 5.83587 11 5.22567 11C4.73552 11 4.42542 10.71 4.29537 10.53C4.02529 10.21 3.93526 9.78 4.03529 9.36ZM4.9956 12.97V19H19.0101V12.97C18.982 12.9735 18.9552 12.9782 18.9287 12.9829C18.8797 12.9916 18.832 13 18.78 13C17.9098 13 17.1195 12.64 16.5393 12.05C15.9391 12.65 15.1389 13 14.2986 13C13.3983 13 12.598 12.64 12.0079 12.07C11.4277 12.64 10.6474 13 9.77714 13C8.86685 13 8.06659 12.65 7.46639 12.05C6.88621 12.64 6.09595 13 5.22567 13C5.17373 13 5.126 12.9916 5.07701 12.9829C5.05053 12.9782 5.02368 12.9735 4.9956 12.97Z" fill="#6E6E70" />
</svg>
