<svg width="95" height="60" viewBox="0 0 95 60" fill="none" xmlns="http://www.w3.org/2000/svg">
	<path fill-rule="evenodd" clip-rule="evenodd" d="M85.722 15.6163L88.1774 25.4376C91.9302 26.0089 94.8148 29.2572 94.8146 33.1668V49.0022C94.8146 49.8222 94.1498 50.4868 93.33 50.4868H88.4776C88.4778 50.5017 88.4783 50.5165 88.4789 50.5314V50.5315C88.4795 50.5495 88.4802 50.5675 88.4802 50.5857C88.4802 55.7702 84.2622 59.988 79.078 59.988C73.8937 59.988 69.6757 55.7702 69.6757 50.5857C69.6757 50.5652 69.6766 50.5448 69.6773 50.5245L69.678 50.5054L69.6783 50.4868H36.2209C36.2211 50.5018 36.2216 50.5167 36.2222 50.5316C36.2229 50.5495 36.2235 50.5675 36.2235 50.5857C36.2235 55.7702 32.0056 59.988 26.8213 59.988C21.637 59.988 17.4191 55.7702 17.4191 50.5857C17.4191 50.5676 17.4197 50.5496 17.4204 50.5317C17.4209 50.5167 17.4215 50.5018 17.4217 50.4868H9.40241C7.71056 50.4868 6.33426 49.1105 6.33426 47.4187V44.1526H1.48463C0.66463 44.1526 0 43.488 0 42.668C0 41.848 0.664815 41.1833 1.48463 41.1833H15.7365C16.5565 41.1833 17.2211 41.848 17.2211 42.668C17.2211 43.488 16.5563 44.1526 15.7365 44.1526H9.30333V47.4187C9.30333 47.4733 9.34759 47.5176 9.40222 47.5176H17.9357C19.2107 43.8355 22.7111 41.1833 26.8213 41.1833C30.9315 41.1833 34.4317 43.8355 35.7069 47.5176H66.5083V36.3341C66.5083 35.5141 67.1731 34.8494 67.993 34.8494C68.813 34.8494 69.4776 35.5143 69.4776 36.3341V47.518H70.1924C71.4674 43.8359 74.9678 41.1837 79.078 41.1837C83.1881 41.1837 86.6883 43.8359 87.9635 47.518H91.8454V40.9859H90.1628C87.5978 40.9859 85.5111 38.8993 85.5111 36.3343V33.1672C85.5111 32.3472 86.1759 31.6826 86.9957 31.6826H91.612C90.9835 29.7335 89.1537 28.3191 86.9987 28.3176L86.9946 28.3178L86.9928 28.3176L86.9907 28.3174H69.478V30.0004C69.478 30.8204 68.8131 31.485 67.9933 31.485C67.1733 31.485 66.5087 30.8202 66.5087 30.0004V3.07962C66.5087 3.02499 66.4644 2.98073 66.4098 2.98073H9.40222C9.34759 2.98073 9.30333 3.02499 9.30333 3.07962V30C9.30333 30.82 8.63852 31.4846 7.8187 31.4846C6.9987 31.4846 6.33407 30.8198 6.33407 30V3.07962C6.33407 1.38777 7.71037 0.0114746 9.40222 0.0114746H66.41C68.1019 0.0114746 69.4781 1.38777 69.4781 3.07962V6.34592H80.6618C84.0998 6.34592 86.897 9.14296 86.897 12.5811V14.1646C86.897 14.8781 86.3933 15.4737 85.722 15.6163ZM80.6618 9.31499H69.4781V12.68H83.928V12.5811C83.928 10.7802 82.4628 9.31499 80.6618 9.31499ZM69.4781 25.3483V15.6491H82.6698L85.0946 25.3483H69.4781ZM20.3881 50.5861C20.3881 54.1335 23.2741 57.0193 26.8213 57.0193C30.3685 57.0193 33.2544 54.1335 33.2544 50.5861C33.2544 47.0387 30.3685 44.153 26.8213 44.153C23.2741 44.153 20.3881 47.0387 20.3881 50.5861ZM79.0783 57.0193C75.5311 57.0193 72.6452 54.1335 72.6452 50.5861C72.6452 47.0387 75.5311 44.153 79.0783 44.153C82.6256 44.153 85.5115 47.0387 85.5115 50.5861C85.5115 54.1335 82.6256 57.0193 79.0783 57.0193ZM90.1631 38.0167H91.8456V34.6515H88.4806V36.3341C88.4806 37.2618 89.2354 38.0167 90.1631 38.0167Z" fill="#161616" />
	<path d="M26.8213 47.5179C25.1295 47.5179 23.7532 48.8942 23.7532 50.5861C23.7532 52.2779 25.1295 53.6542 26.8213 53.6542C28.5132 53.6542 29.8895 52.2779 29.8895 50.5861C29.8895 48.8942 28.5132 47.5179 26.8213 47.5179Z" fill="#161616" />
	<path d="M79.0783 47.5179C77.3865 47.5179 76.0102 48.8942 76.0102 50.5861C76.0102 52.2779 77.3865 53.6542 79.0783 53.6542C80.7702 53.6542 82.1465 52.2779 82.1465 50.5861C82.1465 48.8942 80.7702 47.5179 79.0783 47.5179Z" fill="#161616" />
	<path d="M61.6593 41.1838H39.4896C38.6698 41.1838 38.005 41.8485 38.005 42.6685C38.005 43.4885 38.6696 44.1531 39.4896 44.1531H61.6593C62.4791 44.1531 63.1439 43.4885 63.1439 42.6685C63.1439 41.8485 62.4793 41.1838 61.6593 41.1838Z" fill="#161616" />
	<path d="M23.6543 34.8496H4.65168C3.83187 34.8496 3.16705 35.5142 3.16705 36.3342C3.16705 37.1542 3.83168 37.8189 4.65168 37.8189H23.6543C24.4741 37.8189 25.1389 37.1542 25.1389 36.3342C25.1389 35.5142 24.4741 34.8496 23.6543 34.8496Z" fill="#161616" />
</svg>
