<svg width="72" height="72" viewBox="0 0 72 72" fill="none" xmlns="http://www.w3.org/2000/svg">
	<path d="M41.625 5.625C40.8488 5.625 40.2188 6.25507 40.2188 7.03125C40.2188 7.80743 40.8488 8.4375 41.625 8.4375C42.4012 8.4375 43.0312 7.80743 43.0312 7.03125C43.0312 6.25507 42.4012 5.625 41.625 5.625Z" fill="#161616" />
	<path fill-rule="evenodd" clip-rule="evenodd" d="M69.1875 54.5229V24.75C69.1875 22.4236 67.2951 20.5312 64.9688 20.5312H55.6875V14.0625H61.3125C63.6389 14.0625 65.5312 12.1701 65.5312 9.84375V4.21875C65.5312 1.8924 63.6389 0 61.3125 0H38.8125C36.4861 0 34.5938 1.8924 34.5938 4.21875V9.84375C34.5938 12.1701 36.4861 14.0625 38.8125 14.0625H44.4375V20.5312H30.375V12.6562C30.375 11.8795 29.7455 11.25 28.9688 11.25H14.9062C14.1295 11.25 13.5 11.8795 13.5 12.6562V20.5312H7.03125C4.7049 20.5312 2.8125 22.4236 2.8125 24.75V54.5229C1.17554 55.1036 0 56.6669 0 58.5V67.7812C0 70.1076 1.8924 72 4.21875 72H67.7812C70.1076 72 72 70.1076 72 67.7812V58.5C72 56.6669 70.8245 55.1036 69.1875 54.5229ZM47.25 14.0625H52.875V20.5312H47.25V14.0625ZM37.4062 4.21875V9.84375C37.4062 10.6194 38.0369 11.25 38.8125 11.25H61.3125C62.0881 11.25 62.7188 10.6194 62.7188 9.84375V4.21875C62.7188 3.44312 62.0881 2.8125 61.3125 2.8125H38.8125C38.0369 2.8125 37.4062 3.44312 37.4062 4.21875ZM16.3125 14.0625H27.5625V40.2188H16.3125V14.0625ZM7.03125 23.3438C6.25562 23.3438 5.625 23.9744 5.625 24.75V54.2812H66.375V24.75C66.375 23.9744 65.7444 23.3438 64.9688 23.3438H30.375V40.2188C31.1517 40.2188 31.7812 40.8483 31.7812 41.625C31.7812 42.4017 31.1517 43.0312 30.375 43.0312H13.5C12.7233 43.0312 12.0938 42.4017 12.0938 41.625C12.0938 40.8483 12.7233 40.2188 13.5 40.2188V23.3438H7.03125ZM26.1562 57.0938H45.8438V60.75C45.8438 61.5256 45.2131 62.1562 44.4375 62.1562H27.5625C26.7869 62.1562 26.1562 61.5256 26.1562 60.75V57.0938ZM67.7812 69.1875C68.5569 69.1875 69.1875 68.5569 69.1875 67.7812V58.5C69.1875 57.7244 68.5569 57.0938 67.7812 57.0938H48.6562V60.75C48.6562 63.0764 46.7639 64.9688 44.4375 64.9688H27.5625C25.2361 64.9688 23.3438 63.0764 23.3438 60.75V57.0938H4.21875C3.44312 57.0938 2.8125 57.7244 2.8125 58.5V67.7812C2.8125 68.5569 3.44312 69.1875 4.21875 69.1875H67.7812Z" fill="#161616" />
	<path fill-rule="evenodd" clip-rule="evenodd" d="M58.5 40.2188H38.8125C38.0358 40.2188 37.4062 39.5892 37.4062 38.8125V27.5625C37.4062 26.7858 38.0358 26.1562 38.8125 26.1562H58.5C59.2767 26.1562 59.9062 26.7858 59.9062 27.5625V38.8125C59.9062 39.5892 59.2767 40.2188 58.5 40.2188ZM57.0938 28.9688H40.2188V37.4062H57.0938V28.9688Z" fill="#161616" />
	<path d="M58.5 43.0312H55.6875C54.9108 43.0312 54.2812 43.6608 54.2812 44.4375C54.2812 45.2142 54.9108 45.8438 55.6875 45.8438H58.5C59.2767 45.8438 59.9062 45.2142 59.9062 44.4375C59.9062 43.6608 59.2767 43.0312 58.5 43.0312Z" fill="#161616" />
	<path d="M50.0625 43.0312H47.25C46.4733 43.0312 45.8438 43.6608 45.8438 44.4375C45.8438 45.2142 46.4733 45.8438 47.25 45.8438H50.0625C50.8392 45.8438 51.4688 45.2142 51.4688 44.4375C51.4688 43.6608 50.8392 43.0312 50.0625 43.0312Z" fill="#161616" />
	<path d="M38.8125 45.8438H41.625C42.4017 45.8438 43.0312 45.2142 43.0312 44.4375C43.0312 43.6608 42.4017 43.0312 41.625 43.0312H38.8125C38.0358 43.0312 37.4062 43.6608 37.4062 44.4375C37.4062 45.2142 38.0358 45.8438 38.8125 45.8438Z" fill="#161616" />
	<path d="M58.5 48.6562H55.6875C54.9108 48.6562 54.2812 49.2858 54.2812 50.0625C54.2812 50.8392 54.9108 51.4688 55.6875 51.4688H58.5C59.2767 51.4688 59.9062 50.8392 59.9062 50.0625C59.9062 49.2858 59.2767 48.6562 58.5 48.6562Z" fill="#161616" />
	<path d="M50.0625 48.6562H47.25C46.4733 48.6562 45.8438 49.2858 45.8438 50.0625C45.8438 50.8392 46.4733 51.4688 47.25 51.4688H50.0625C50.8392 51.4688 51.4688 50.8392 51.4688 50.0625C51.4688 49.2858 50.8392 48.6562 50.0625 48.6562Z" fill="#161616" />
	<path d="M38.8125 51.4688H41.625C42.4017 51.4688 43.0312 50.8392 43.0312 50.0625C43.0312 49.2858 42.4017 48.6562 41.625 48.6562H38.8125C38.0358 48.6562 37.4062 49.2858 37.4062 50.0625C37.4062 50.8392 38.0358 51.4688 38.8125 51.4688Z" fill="#161616" />
	<path d="M31.7812 47.25C31.7812 46.4733 31.1517 45.8438 30.375 45.8438H13.5C12.7233 45.8438 12.0938 46.4733 12.0938 47.25C12.0938 48.0267 12.7233 48.6562 13.5 48.6562H30.375C31.1517 48.6562 31.7812 48.0267 31.7812 47.25Z" fill="#161616" />
	<path d="M47.25 8.4375H58.5C59.2767 8.4375 59.9062 7.80798 59.9062 7.03125C59.9062 6.25452 59.2767 5.625 58.5 5.625H47.25C46.4733 5.625 45.8438 6.25452 45.8438 7.03125C45.8438 7.80798 46.4733 8.4375 47.25 8.4375Z" fill="#161616" />
</svg>
