<svg width="20" height="21" viewBox="0 0 20 21" fill="none" xmlns="http://www.w3.org/2000/svg">
	<path fill-rule="evenodd" clip-rule="evenodd" d="M0 10.95C0 5.42995 4.48 0.949951 10 0.949951C15.52 0.949951 20 5.42995 20 10.95V12.38C20 14.35 18.47 15.95 16.5 15.95C15.31 15.95 14.19 15.37 13.54 14.48C12.64 15.39 11.38 15.95 10 15.95C7.24 15.95 5 13.71 5 10.95C5 8.18995 7.24 5.94995 10 5.94995C12.76 5.94995 15 8.18995 15 10.95V12.38C15 13.17 15.71 13.95 16.5 13.95C17.29 13.95 18 13.17 18 12.38V10.95C18 6.60995 14.34 2.94995 10 2.94995C5.66 2.94995 2 6.60995 2 10.95C2 15.29 5.66 18.95 10 18.95H15V20.95H10C4.48 20.95 0 16.47 0 10.95ZM7 10.95C7 12.61 8.34 13.95 10 13.95C11.66 13.95 13 12.61 13 10.95C13 9.28995 11.66 7.94995 10 7.94995C8.34 7.94995 7 9.28995 7 10.95Z" fill="#6E6E70" />
</svg>
