<svg width="98" height="18" viewBox="0 0 98 18" fill="none" xmlns="http://www.w3.org/2000/svg">
	<path d="M4.2094 0H0L0.000593375 18H4.2094V0Z" fill="white" />
	<path d="M8.30808 15.4125C9.12942 16.2434 10.1201 16.8898 11.2136 17.3084C12.4247 17.7782 13.7153 18.0122 15.0152 17.9978C17.6759 18.0547 20.2372 16.9928 22.0693 15.0735L19.8571 11.9589C19.2216 12.5915 18.484 13.1139 17.6751 13.5045C16.9091 13.8886 16.0644 14.0921 15.2065 14.0991C14.4506 14.1111 13.7013 13.9568 13.0124 13.6473C12.403 13.3776 11.8677 12.966 11.4519 12.4473C11.0611 11.9475 10.7598 11.3845 10.5613 10.7829C10.3569 10.1653 10.254 9.51905 10.2566 8.86891C10.2527 8.24345 10.3495 7.6214 10.5432 7.02633C10.7328 6.45113 11.0266 5.9153 11.4103 5.44534C11.8272 4.94761 12.3611 4.55976 12.9647 4.31615C13.6757 4.02698 14.4385 3.88528 15.2065 3.89976C16.0036 3.90986 16.7904 4.07964 17.52 4.39895C18.276 4.70896 18.9766 5.13851 19.5946 5.67094L21.5793 2.46097C20.731 1.64064 19.7131 1.01391 18.5965 0.624386C17.4487 0.210441 16.2368 -0.000736942 15.0158 0.000391208C13.7451 -0.0109213 12.4844 0.22321 11.3035 0.689785C10.2129 1.11462 9.22188 1.75795 8.39196 2.57977C7.58294 3.39823 6.94491 4.36786 6.51469 5.43274C6.05665 6.55384 5.82515 7.75366 5.83342 8.96371C5.82213 10.1891 6.04301 11.4057 6.48452 12.5499C6.89419 13.6155 7.51422 14.5888 8.30808 15.4125Z" fill="white" />
	<path d="M34.457 14.34H27.3618L27.3611 10.86H32.6529V7.2H27.3618L27.3611 3.66H33.8556V0H23.0386L23.0314 18H34.457V14.34Z" fill="white" />
	<path fill-rule="evenodd" clip-rule="evenodd" d="M38.3657 18V10.7988L42.6352 10.8L46.5946 18H48.5885L44.7847 11.1077C44.7455 11.0393 44.7103 10.9726 44.6758 10.9074C44.5898 10.7445 44.5084 10.5904 44.381 10.4395C45.368 10.1298 46.1547 9.51967 46.7246 8.68951C47.3469 7.79997 47.6501 6.47905 47.6264 5.40168C47.6513 4.48014 47.4513 2.95392 46.9736 2.15906C46.5224 1.43276 45.8603 0.854067 45.0717 0.496562C44.047 0.122541 42.9549 -0.04317 41.8624 0.00956641H36.5616V18H38.3657ZM38.3657 1.8H41.7933C42.5691 1.76199 43.3173 1.88828 44.0508 2.1382C44.6205 2.3801 45.0971 2.79227 45.4122 3.3155C45.7417 3.86641 45.8926 4.76196 45.881 5.4C45.9272 6.35264 45.5849 7.59793 44.935 8.30927C44.2773 8.97503 43.581 9.04237 42.6352 9H38.3657V1.8Z" fill="white" />
	<path fill-rule="evenodd" clip-rule="evenodd" d="M50.4406 13.4911C51.1703 14.8605 52.254 16.0015 53.5749 16.7911C56.3372 18.403 59.734 18.403 62.4963 16.7911C63.8164 16.0025 64.8984 14.8611 65.6246 13.4911C66.3805 12.0699 66.7673 10.4764 66.7484 8.86103C66.7668 7.28992 66.3793 5.7414 65.6246 4.37008C64.8887 3.03389 63.8068 1.92805 62.4963 1.17255C59.7214 -0.390849 56.3497 -0.390849 53.5749 1.17255C52.2635 1.92903 51.1799 3.0345 50.4406 4.37008C49.6821 5.74012 49.2924 7.28915 49.3108 8.86103C49.2919 10.4771 49.6808 12.0712 50.4406 13.4911ZM51.9636 5.16809C52.5463 4.08059 53.4124 3.17716 54.467 2.55686C56.6832 1.29158 59.388 1.29158 61.6042 2.55686C62.6578 3.17664 63.5223 4.08033 64.1022 5.16809C64.7077 6.30072 65.0178 7.5721 65.0027 8.86103C65.0186 10.1924 64.7092 11.507 64.1022 12.687C62.9161 14.977 60.5793 16.4107 58.0329 16.4107C55.4865 16.4107 53.1497 14.977 51.9636 12.687C51.3535 11.508 51.0428 10.1929 51.0595 8.86103C51.0437 7.57155 51.355 6.29968 51.9636 5.16809Z" fill="white" />
	<path d="M72.4538 16.7784C73.8088 17.6043 75.3601 18.0267 76.9347 17.9986C79.3604 18.042 81.698 17.0639 83.4063 15.2909L82.4436 14.0822C80.9778 15.5426 79.0215 16.3654 76.9815 16.3793C75.7039 16.4014 74.4468 16.047 73.3584 15.358C72.318 14.7006 71.4776 13.7562 70.9326 12.6319C70.3687 11.4602 70.0828 10.1675 70.0986 8.86006C70.08 7.57941 70.3664 6.31355 70.9326 5.17304C71.4783 4.08862 72.3111 3.18537 73.3347 2.56778C74.4187 1.91636 75.6559 1.58394 76.911 1.60682C77.8611 1.61104 78.8034 1.78274 79.6971 2.11445C80.5702 2.41849 81.3793 2.89034 82.0814 3.50494L82.9729 2.2499C82.1839 1.47898 81.2366 0.900543 80.201 0.557391C79.1257 0.18748 77.9992 -0.000440957 76.8653 0.00095133C75.3305 -0.022214 73.8177 0.378066 72.484 1.1602C71.2047 1.91271 70.1551 3.01813 69.4536 4.3518C68.7243 5.74354 68.3526 7.30397 68.3735 8.88508C68.3525 10.4863 68.7155 12.0681 69.4305 13.4904C70.1219 14.8542 71.1688 15.9928 72.4538 16.7784Z" fill="white" />
	<path d="M87.5555 9.42H90.442L95.3369 18H97.2973L91.8327 8.55019L96.9646 0H95.0401L90.442 7.8H87.5555V0H85.8718V18H87.5555V9.42Z" fill="white" />
</svg>
